<?xml version="1.0" encoding="UTF-8" standalone="no"?>
<svg
   sodipodi:docname="mtb-config-tool-icon.svg"
   inkscape:version="1.1.1 (3bf5ae0d25, 2021-09-20)"
   id="svg8"
   version="1.1"
   viewBox="0 0 50 50"
   height="50mm"
   width="50mm"
   xmlns:inkscape="http://www.inkscape.org/namespaces/inkscape"
   xmlns:sodipodi="http://sodipodi.sourceforge.net/DTD/sodipodi-0.dtd"
   xmlns="http://www.w3.org/2000/svg"
   xmlns:svg="http://www.w3.org/2000/svg"
   xmlns:rdf="http://www.w3.org/1999/02/22-rdf-syntax-ns#"
   xmlns:cc="http://creativecommons.org/ns#"
   xmlns:dc="http://purl.org/dc/elements/1.1/">
  <defs
     id="defs2">
    <marker
       id="ArrowEnd"
       markerHeight="3"
       markerUnits="strokeWidth"
       markerWidth="4"
       orient="auto"
       refX="0"
       refY="5"
       viewBox="0 0 10 10">
      <path
         inkscape:connector-curvature="0"
         d="M 0,0 10,5 0,10 Z"
         id="path2222" />
    </marker>
    <marker
       id="ArrowStart"
       markerHeight="3"
       markerUnits="strokeWidth"
       markerWidth="4"
       orient="auto"
       refX="10"
       refY="5"
       viewBox="0 0 10 10">
      <path
         inkscape:connector-curvature="0"
         d="M 10,0 0,5 10,10 Z"
         id="path2225" />
    </marker>
  </defs>
  <sodipodi:namedview
     inkscape:document-rotation="0"
     width="100mm"
     inkscape:window-maximized="1"
     inkscape:window-y="-8"
     inkscape:window-x="-8"
     inkscape:window-height="1385"
     inkscape:window-width="2560"
     showgrid="false"
     inkscape:current-layer="layer1"
     inkscape:document-units="mm"
     inkscape:cy="131.57237"
     inkscape:cx="84.095199"
     inkscape:zoom="1.979899"
     inkscape:pageshadow="2"
     inkscape:pageopacity="0.0"
     borderopacity="1.0"
     bordercolor="#666666"
     pagecolor="#ffffff"
     id="base"
     inkscape:pagecheckerboard="0" />
  <metadata
     id="metadata5">
    <rdf:RDF>
      <cc:Work
         rdf:about="">
        <dc:format>image/svg+xml</dc:format>
        <dc:type
           rdf:resource="http://purl.org/dc/dcmitype/StillImage" />
        <dc:title />
      </cc:Work>
    </rdf:RDF>
  </metadata>
  <g
     transform="translate(0,-247)"
     id="layer1"
     inkscape:groupmode="layer"
     inkscape:label="Layer 1">
    <g
       style="fill:#000000;fill-opacity:0.86274511"
       transform="matrix(2.5,0,0,2.5,0,245.40421)"
       id="layer1-3">
      <path
         inkscape:connector-curvature="0"
         d="M 4,1 V 3 H 2 V 4 H 4 V 5 H 2 V 6 H 4 V 7 H 2 V 8 H 4 V 9 H 2 v 1 h 2 v 1 H 2 v 1 h 2 v 1 H 2 v 1 h 2 v 1 H 2 v 1 h 2 v 1 H 2 v 1 h 2 v 2 h 12 v -2 h 2 v -1 h -2 v -1 h 2 v -1 h -2 v -1 h 2 v -1 h -2 v -1 h 2 v -1 h -2 v -1 h 2 V 9 H 16 V 8 h 2 V 7 H 16 V 6 h 2 V 5 H 16 V 4 h 2 V 3 H 16 V 1 H 12 L 11,2 H 9 L 8,1 Z m 1,1 h 2.5 l 1,1 h 3 l 1,-1 H 15 V 19 H 5 Z"
         style="fill:#000000;fill-opacity:0.86274511;stroke:none;stroke-width:0px"
         id="path1000" />
    </g>
    <text
       xml:space="preserve"
       style="font-style:normal;font-variant:normal;font-weight:normal;font-stretch:normal;font-size:11.2889px;line-height:1;font-family:'Open Sans';-inkscape-font-specification:'Open Sans';font-variant-ligatures:normal;font-variant-caps:normal;font-variant-numeric:normal;font-feature-settings:normal;text-align:center;letter-spacing:0px;word-spacing:0px;writing-mode:lr-tb;text-anchor:middle;fill:#000000;fill-opacity:0.862745;stroke:none;stroke-width:0.264583"
       x="24.994488"
       y="265.26968"
       id="text907"><tspan
         sodipodi:role="line"
         id="tspan905"
         x="24.994488"
         y="265.26968"
         style="font-style:normal;font-variant:normal;font-weight:bold;font-stretch:normal;font-family:Arial;-inkscape-font-specification:'Arial Bold';fill:#000000;fill-opacity:0.862745;stroke-width:0.264583">M</tspan><tspan
         sodipodi:role="line"
         x="24.994488"
         y="276.68927"
         style="font-style:normal;font-variant:normal;font-weight:bold;font-stretch:normal;font-family:Arial;-inkscape-font-specification:'Arial Bold';fill:#000000;fill-opacity:0.862745;stroke-width:0.264583"
         id="tspan909">T</tspan><tspan
         sodipodi:role="line"
         x="24.994488"
         y="288.10886"
         style="font-style:normal;font-variant:normal;font-weight:bold;font-stretch:normal;font-family:Arial;-inkscape-font-specification:'Arial Bold';fill:#000000;fill-opacity:0.862745;stroke-width:0.264583"
         id="tspan911">B</tspan></text>
  </g>
</svg>
